<svg class="img-fluid" id="outputsvg" xmlns="http://www.w3.org/2000/svg" style="transform: matrix(1, 0, 0, 1, 0, 0); transform-origin: 50% 50%; cursor: move; max-height: none; transition: transform 200ms ease-in-out 0s;" width="200" height="194" viewBox="0 0 2000 1940"><g id="l7LQcogXOeZh16FSVGlFRCj" fill="rgb(94,93,215)" style="transform: none;"><g><path id="pVMqMybXW" d="M1070 1810 c-25 -5 -63 -15 -85 -23 -45 -17 -894 -412 -901 -420 -3 -3 6 -31 19 -63 23 -55 61 -167 227 -679 34 -104 78 -220 97 -258 91 -173 292 -274 491 -246 101 15 782 239 782 258 0 9 -21 78 -46 154 -25 76 -44 148 -42 159 2 16 35 36 146 86 97 45 142 71 142 82 0 20 -309 683 -345 740 -57 91 -156 165 -265 198 -50 15 -168 22 -220 12z m32 -447 c16 -15 18 -36 18 -259 0 -285 10 -264 -129 -264 -68 0 -93 4 -105 16 -14 13 -16 50 -16 251 0 288 -7 273 123 273 70 0 95 -4 109 -17z"></path></g></g><g id="l2mv9j2lvbCNHd7aU2vwAut" fill="rgb(109,170,241)" style="transform: none;"><g><path id="pfRlmnEck" d="M130 1225 c0 -3 2 -5 5 -5 3 0 5 2 5 5 0 3 -2 5 -5 5 -3 0 -5 -2 -5 -5z"></path><path id="pTZfsiAMK" d="M140 1200 c0 -7 3 -10 7 -7 3 4 3 10 0 14 -4 3 -7 0 -7 -7z"></path><path id="p6vAH6LLF" d="M155 1165 c4 -11 31 -96 61 -190 201 -621 209 -641 305 -730 108 -99 252 -144 397 -124 101 15 782 239 782 258 0 9 -21 78 -46 155 -25 76 -44 148 -41 160 3 18 -21 9 -170 -64 -95 -47 -173 -85 -173 -83 0 1 -53 -23 -117 -53 -164 -77 -219 -94 -306 -94 -135 0 -267 56 -360 154 -61 62 -101 136 -235 436 -48 105 -113 223 -97 175z"></path></g></g></svg>